<?xml version="1.0" standalone="no"?>
<!DOCTYPE svg PUBLIC "-//W3C//DTD SVG 20010904//EN"
 "http://www.w3.org/TR/2001/REC-SVG-20010904/DTD/svg10.dtd">
<svg version="1.0" xmlns="http://www.w3.org/2000/svg"
 width="128.000000pt" height="128.000000pt" viewBox="0 0 128.000000 128.000000"
 preserveAspectRatio="xMidYMid meet">

<g transform="translate(0.000000,128.000000) scale(0.100000,-0.100000)"
fill="#000000" stroke="none">
<path d="M0 640 l0 -640 640 0 640 0 0 640 0 640 -640 0 -640 0 0 -640z m695
111 c19 -168 41 -198 104 -145 24 20 31 22 31 10 0 -11 9 -16 30 -16 23 0 35
7 50 33 12 19 20 25 20 16 0 -16 19 -29 41 -29 5 0 9 11 9 24 0 29 15 42 24
21 8 -22 -4 -73 -21 -87 -11 -9 -22 -9 -43 -1 -23 9 -32 8 -41 -4 -25 -29 -49
-35 -75 -19 -22 15 -25 15 -45 -5 -11 -11 -27 -18 -36 -15 -8 3 -19 6 -24 6
-16 0 -37 61 -45 130 l-7 65 -13 -63 c-23 -111 -73 -162 -156 -162 -33 0 -32
1 22 31 30 16 64 39 77 51 l22 21 -19 37 c-25 48 -79 93 -97 79 -8 -7 -21 -4
-42 12 -25 18 -31 30 -31 61 0 21 4 38 8 38 35 0 163 -115 177 -159 16 -52 35
4 35 107 0 48 15 100 26 89 2 -2 11 -59 19 -126z m414 -4 c12 -128 8 -207 -10
-207 -5 0 -9 17 -9 38 0 20 -5 85 -11 143 -11 101 -8 159 9 159 5 0 14 -60 21
-133z m-776 -77 c28 -24 33 -35 29 -60 -4 -29 -6 -30 -52 -30 -31 0 -56 -6
-70 -18 l-22 -18 22 -95 c12 -52 20 -114 18 -139 -4 -51 -3 -54 -37 100 -26
115 -26 129 -1 204 32 96 55 108 113 56z m807 -172 c0 -22 -17 -41 -24 -29
-10 15 -26 14 -26 -3 0 -16 41 -29 65 -20 13 5 16 2 14 -11 -3 -11 -21 -23
-49 -31 -57 -17 -65 -17 -51 0 8 10 9 16 1 21 -16 10 -12 30 11 59 21 27 59
36 59 14z"/>
<path d="M250 630 c0 -5 7 -7 15 -4 8 4 15 8 15 10 0 2 -7 4 -15 4 -8 0 -15
-4 -15 -10z"/>
</g>
</svg>
